<svg xmlns="http://www.w3.org/2000/svg" width="410" height="310" baseProfile="tiny" version="1.2">[<path fill="#6C7271" d="M0 0h409v309H0z"/>,<circle r="1" fill="#B9BCBA" transform="matrix(-1.88486 -107.98355 135.97929 -2.37353 218 158)"/>,<ellipse cx="385" cy="35" fill="#393E44" rx="100" ry="84"/>,<circle cx="371" cy="304" r="76" fill="#3C3833"/>,<circle r="133" fill="#323B40"/>,<ellipse cx="22" cy="289" fill="#2B2F2E" rx="53" ry="176"/>,<ellipse cx="204" cy="17" fill="#434A4D" rx="99" ry="35"/>,<circle cx="80" cy="83" r="28" fill="#5E7986"/>,<circle r="1" fill="#41433E" transform="matrix(135 0 0 26 186 304)"/>,<circle cx="136" cy="118" r="47" fill="#9FAEB0"/>,<circle r="1" fill="#494C49" transform="matrix(43.84665 10.1228 -17.77113 76.97524 394 172)"/>,<circle cx="329" cy="217" r="18" fill="#B1AC88"/>,<circle r="1" fill="#738999" transform="rotate(-149 168.307 14.708)scale(29 63)"/>,<ellipse cx="93" cy="299" fill="#383831" rx="41" ry="36"/>,<ellipse cx="380" cy="23" fill="#2D2928" rx="46" ry="51"/>,<circle cx="215" cy="196" r="64" fill="#CFCAC2"/>,<circle r="1" fill="#607D8D" transform="matrix(.5757 10.98492 -55.92325 2.93081 118 66)"/>,<ellipse cx="100" cy="257" fill="#B8A36A" rx="21" ry="8"/>,<ellipse cx="19" cy="16" fill="#242728" rx="59" ry="61"/>,<circle r="1" fill="#546E86" transform="rotate(-72 202.92 -183.78)scale(14 38)"/>,<circle cy="302" r="65" fill="#1C1B1B"/>,<circle r="1" fill="#CFCEC4" transform="matrix(4.91756 18.3526 -20.28444 5.4352 176 90)"/>,<ellipse cx="141" cy="131" fill="#758F9C" rx="25" ry="15"/>,<circle cx="147" cy="156" r="21" fill="#829AA5"/>,<circle cx="204" cy="102" r="48" fill="#CFCCC3"/>,<circle r="1" fill="#65818B" transform="rotate(143 12.196 124.728)scale(15 52)"/>,<circle cx="193" cy="40" r="15" fill="#556469"/>,<circle r="1" fill="#384243" transform="rotate(172 15.731 84.003)scale(19 90)"/>,<circle r="1" fill="#7C95A1" transform="matrix(-10.32438 14.74474 -22.93626 -16.06014 138 155)"/>,<circle r="1" fill="#CFCDC6" transform="matrix(16.77135 -12.63812 36.71072 48.71677 138 215)"/>,<circle cx="271" cy="86" r="28" fill="#B6BABD"/>,<circle cx="306" r="34" fill="#373637"/>,<circle cx="299" cy="194" r="26" fill="#D1CECA"/>,<circle cx="392" cy="309" r="47" fill="#322520"/>,<circle cx="202" cy="307" r="30" fill="#4C4F49"/>,<circle cx="129" r="53" fill="#383E40"/>,<circle r="1" fill="#5D778E" transform="rotate(95 122.22 171.782)scale(7 29)"/>,<circle r="1" fill="#6B858B" transform="matrix(6.1372 12.58312 -16.1783 7.89068 313 239)"/>,<circle cx="339" cy="94" r="15" fill="#536E82"/>,<circle cx="346" cy="255" r="21" fill="#464E48"/>,<circle cx="122" cy="76" r="7" fill="#C3CFCD"/>,<circle r="1" fill="#D1CECB" transform="matrix(-30.75561 45.59707 -10.77749 -7.2695 319 164)"/>,<ellipse cx="287" cy="139" fill="#D1D2D1" rx="8" ry="9"/>,<circle r="1" fill="#678492" transform="rotate(94 34.632 105.209)scale(26 13)"/>,<ellipse cx="227" cy="42" fill="#54646B" rx="59" ry="12"/>,<circle r="1" fill="#3D3836" transform="matrix(17.48968 39.28245 -25.57927 11.38863 409 105)"/>,<circle r="1" fill="#445254" transform="matrix(2.24951 9.7437 -30.20547 6.97348 147 42)"/>,<ellipse cx="248" cy="236" fill="#CFCBC1" rx="44" ry="21"/>,<circle r="1" fill="#2A2E2F" transform="rotate(44 -67.653 74.839)scale(15 204)"/>,<ellipse cx="204" cy="226" fill="#BCBBB6" rx="16" ry="18"/>,<ellipse cx="153" cy="146" fill="#98ABB0" rx="20" ry="8"/>,<circle r="1" fill="#413E3A" transform="rotate(63 20.917 446.214)scale(18 42)"/>,<ellipse cx="338" cy="129" fill="#D1CFCC" rx="11" ry="20"/>,<circle cx="329" cy="70" r="22" fill="#4D687F"/>,<circle r="1" fill="#D4D2CD" transform="matrix(4.24024 2.6496 -15.89758 25.44144 257 125)"/>,<circle r="1" fill="#414339" transform="rotate(-145 73.543 116.437)scale(19 7)"/>,<circle cx="308" cy="270" r="19" fill="#4D5551"/>,<ellipse cx="263" cy="84" fill="#C3C4C5" rx="17" ry="33"/>,<circle r="1" fill="#C9CEC5" transform="rotate(-14 523.011 -522.749)scale(40 4)"/>,<circle cx="78" cy="163" r="11" fill="#678490"/>,<ellipse cx="162" cy="145" fill="#738C98" rx="7" ry="16"/>,<circle r="1" fill="#D5D7CF" transform="rotate(-4 2244.173 -1455.54)scale(7 31)"/>,<circle r="1" fill="#383935" transform="matrix(34.11017 18.90758 -11.15062 20.11625 307 309)"/>,<circle r="1" fill="#4F554B" transform="rotate(-91 193.638 78.03)scale(8 32)"/>,<circle r="1" fill="#1D2223" transform="rotate(-111 66.666 97)scale(68 17)"/>,<ellipse cx="12" cy="7" fill="#1D1C20" rx="34" ry="24"/>,<ellipse cx="70" cy="309" fill="#2A2723" rx="17" ry="30"/>,<circle r="1" fill="#577585" transform="rotate(-122 66.704 40.153)scale(19 8)"/>,<ellipse cx="262" cy="266" fill="#677372" rx="52" ry="9"/>,<circle r="1" fill="#5F7B87" transform="matrix(-10.26938 -3.94205 8.60083 -22.40593 79 194)"/>,<circle cx="115" cy="91" r="12" fill="#CACBC7"/>,<ellipse cx="337" cy="32" fill="#2B2D31" rx="18" ry="19"/>,<circle cx="368" cy="189" r="27" fill="#505A58"/>,<circle cx="323" cy="94" r="19" fill="#5A768B"/>,<circle r="1" fill="#4F534D" transform="rotate(-70 342.583 -59.155)scale(12)"/>,<ellipse cx="362" cy="161" fill="#535E5E" rx="12" ry="52"/>,<circle r="1" fill="#BEC1C2" transform="rotate(-150 148.558 8.425)scale(43 9)"/>,<circle r="1" fill="#4B4F48" transform="rotate(-35 554.31 -126.843)scale(12 19)"/>,<circle cx="101" cy="103" r="7" fill="#D3D4D0"/>,<circle r="1" fill="#4A524D" transform="rotate(-124 230.717 47.926)scale(14 34)"/>,<ellipse cx="174" cy="147" fill="#D4D2C9" rx="5" ry="25"/>,<circle r="1" fill="#6B8794" transform="matrix(-5.45599 -5.85083 31.4482 -29.32593 149 77)"/>,<circle r="1" fill="#3C3E40" transform="matrix(-71.46332 -8.7746 1.70617 -13.89565 227 0)"/>,<circle r="1" fill="#72828E" transform="matrix(1.97538 .31287 -2.65939 16.7907 284 79)"/>,<circle r="1" fill="#D1CAC0" transform="matrix(13.64118 3.14931 -6.74853 29.2311 216 219)"/>,<circle cx="68" cy="71" r="13" fill="#4E6A7A"/>,<ellipse cx="66" cy="212" fill="#3B4D4F" rx="3" ry="18"/>,<circle cx="46" cy="169" r="17" fill="#3E4C4B"/>,<ellipse cx="340" cy="151" fill="#D2CECC" rx="10" ry="28"/>,<circle r="1" fill="#30383C" transform="rotate(-95 58.95 -8.946)scale(10 27)"/>,<circle r="1" fill="#464742" transform="rotate(107 126.204 240.402)scale(55 17)"/>,<circle cx="251" cy="75" r="23" fill="#CDCCC9"/>,<circle cx="213" cy="180" r="30" fill="#D6CDC5"/>,<circle cx="147" cy="192" r="17" fill="#D0CDC7"/>,<circle cx="76" cy="148" r="11" fill="#648190"/>,<circle cx="337" cy="229" r="7" fill="#D3C081"/>,<circle cx="268" cy="125" r="7" fill="#718899"/>,<ellipse cx="75" cy="202" fill="#5D7884" rx="7" ry="36"/>,<circle r="1" fill="#CFCBC5" transform="rotate(-111 213.54 10.78)scale(27 31)"/>,<circle r="1" fill="#565852" transform="matrix(0 8 -83 0 199 286)"/>,<ellipse cy="106" fill="#272C2D" rx="29" ry="37"/>,<circle cx="125" cy="257" r="8" fill="#999C80"/>,<circle r="1" fill="#2B2A26" transform="rotate(-25 650.733 21.222)scale(8 28)"/>,<circle r="1" fill="#181415" transform="matrix(-27.48556 5.34265 -7.25074 -37.30183 1 294)"/>,<circle cx="248" cy="218" r="19" fill="#C8C5BD"/>,<circle r="1" fill="#D2CFCC" transform="rotate(-147 186.233 50.346)scale(12 49)"/>,<circle cx="228" cy="148" r="32" fill="#D4CDC3"/>,<ellipse cx="123" cy="290" fill="#42443E" rx="20" ry="10"/>,<ellipse cx="231" cy="51" fill="#637C93" rx="65" ry="3"/>,<ellipse cx="204" cy="264" fill="#6B7B7D" rx="44" ry="3"/>,<circle cx="376" cy="8" r="34" fill="#2C2624"/>,<ellipse cx="269" cy="43" fill="#46545A" rx="25" ry="5"/>,<ellipse cx="269" cy="177" fill="#D2CCC7" rx="25" ry="10"/>,<circle r="1" fill="#5D7B8B" transform="rotate(112 -7.518 90.957)scale(26 11)"/>,<circle r="1" fill="#758C9A" transform="rotate(-25 474.303 -538.456)scale(10 18)"/>,<circle cx="239" cy="221" r="10" fill="#D4CEC5"/>,<ellipse cx="323" cy="103" fill="#5C788B" rx="7" ry="30"/>,<circle cx="140" cy="145" r="6" fill="#E2E9DF"/>,<circle cx="123" cy="142" r="11" fill="#668292"/>,<circle cx="336" cy="303" r="11" fill="#342C29"/>,<ellipse cx="48" cy="141" fill="#3B4A4D" rx="11" ry="32"/>,<circle r="1" fill="#697E7D" transform="matrix(10 0 0 6 330 241)"/>,<circle r="1" fill="#C3AC6D" transform="matrix(1.31511 -2.69638 24.26744 11.83602 96 252)"/>,<circle cx="295" cy="249" r="9" fill="#69848D"/>,<circle cx="123" cy="234" r="8" fill="#788F95"/>,<circle cx="106" cy="225" r="13" fill="#68848F"/>,<ellipse cx="201" cy="309" fill="#3D413B" rx="72" ry="12"/>,<circle cx="368" cy="87" r="18" fill="#34393F"/>,<ellipse cx="362" cy="270" fill="#3B3732" rx="16" ry="12"/>,<circle cx="106" cy="247" r="6" fill="#5A7780"/>,<circle cx="212" cy="115" r="29" fill="#D0CBC0"/>,<circle cx="160" cy="107" r="5" fill="#9CA9A5"/>,<ellipse cx="114" fill="#2C2E30" rx="39" ry="14"/>,<ellipse cx="338" cy="60" fill="#455D74" rx="12" ry="10"/>,<circle cx="138" cy="258" r="8" fill="#80908A"/>,<circle r="1" fill="#ADACA7" transform="rotate(78 -35.392 266.866)scale(2 16)"/>,<ellipse cx="28" cy="137" fill="#323A3C" rx="8" ry="53"/>,<ellipse cx="173" cy="41" fill="#4F5E61" rx="19" ry="11"/>,<ellipse cx="286" cy="118" fill="#688091" rx="19" ry="11"/>,<circle cx="76" cy="270" r="12" fill="#3C3E34"/>,<circle r="1" fill="#525C56" transform="rotate(19 -414.089 1178.125)scale(8 48)"/>,<ellipse cx="126" cy="88" fill="#D0D4D2" rx="5" ry="7"/>,<circle r="1" fill="#648390" transform="rotate(167 63.917 56.919)scale(5 9)"/>,<ellipse cx="409" cy="121" fill="#423E3D" rx="30" ry="18"/>,<ellipse cx="63" cy="244" fill="#40443C" rx="10" ry="25"/>,<ellipse cx="127" cy="155" fill="#678494" rx="10" ry="11"/>,<circle cx="231" cy="58" r="5" fill="#C8CCCB"/>,<circle cx="346" cy="191" r="7" fill="#607380"/>,<circle cx="409" cy="59" r="21" fill="#382E2C"/>,<ellipse cx="56" cy="178" fill="#3F4F4F" rx="6" ry="42"/>,<circle cx="332" cy="215" r="11" fill="#C8BB80"/>,<circle cx="396" cy="303" r="18" fill="#2F1E19"/>,<circle r="1" fill="#362E2A" transform="rotate(56 -43.614 503.265)scale(9 69)"/>,<circle cx="359" cy="109" r="12" fill="#444F56"/>,<circle cx="6" cy="40" r="12" fill="#1E2022"/>,<circle r="1" fill="#D4D7D2" transform="matrix(4.8063 -1.37819 8.54476 29.79911 96 170)"/>,<ellipse cx="241" cy="210" fill="#9F9E9C" rx="28" ry="2"/>,<ellipse cx="260" cy="62" fill="#CCC" rx="15" ry="10"/>,<circle r="1" fill="#697F89" transform="rotate(141 37.555 73.508)scale(20 4)"/>,<circle r="1" fill="#627E8B" transform="rotate(-29 435.471 -64.769)scale(16 31)"/>,<ellipse cx="313" cy="90" fill="#5C768A" rx="41" ry="5"/>,<ellipse cx="144" cy="274" fill="#57615B" rx="13" ry="9"/>,<circle cx="305" cy="309" r="15" fill="#2F302D"/>,<circle r="1" fill="#CEDAD6" transform="rotate(-171 50.576 60.92)scale(3 23)"/>,<ellipse cx="152" cy="37" fill="#455153" rx="15" ry="16"/>,<circle r="1" fill="#41443E" transform="matrix(1.62784 4.7276 -51.058 17.58068 311 283)"/>,<ellipse cx="351" fill="#382E2C" rx="30" ry="11"/>,<circle cx="44" cy="86" r="12" fill="#303C41"/>,<circle r="1" fill="#CECCC8" transform="matrix(-2.61467 29.88584 -18.9277 -1.65596 244 84)"/>,<circle cy="251" r="22" fill="#16191B"/>,<ellipse cx="367" cy="92" fill="#363C42" rx="16" ry="14"/>,<circle cx="328" cy="18" r="11" fill="#2C2D2D"/>,<circle r="1" fill="#D6D3CA" transform="rotate(8 -1734.335 1400.26)scale(31 4)"/>,<ellipse cx="297" cy="268" fill="#545E5C" rx="10" ry="14"/>,<circle r="1" fill="#73858F" transform="rotate(51 34.866 332.082)scale(3 19)"/>,<circle r="1" fill="#D4D3CA" transform="rotate(-8 1308.808 -734.788)scale(9 15)"/>,<circle cx="70" cy="86" r="16" fill="#53717F"/>,<ellipse cx="112" cy="41" fill="#3B4448" rx="20" ry="14"/>,<circle r="1" fill="#D0CDC8" transform="rotate(41 -189.113 293.247)scale(11 31)"/>,<circle cx="337" cy="202" r="10" fill="#A0A291"/>,<circle r="1" fill="#516F7E" transform="rotate(118 9.463 63.53)scale(28 7)"/>,<ellipse cx="116" cy="305" fill="#33322E" rx="31" ry="7"/>,<circle cx="112" cy="124" r="7" fill="#DADDD4"/>,<circle cx="163" cy="95" r="9" fill="#D4D3C8"/>,<circle cx="291" cy="65" r="4" fill="#9CADBC"/>,<circle cx="140" cy="94" r="10" fill="#6A8792"/>,<circle cx="139" cy="164" r="11" fill="#6D8A9B"/>,<ellipse cx="380" cy="77" fill="#2F3032" rx="9" ry="13"/>,<circle cx="97" cy="146" r="3" fill="#808988"/>,<circle cx="138" cy="122" r="9" fill="#688494"/>,<circle cx="89" cy="229" r="13" fill="#597681"/>,<circle cx="336" cy="231" r="8" fill="#C9B87F"/>,<circle cx="192" cy="23" r="9" fill="#454E4F"/>,<circle r="1" fill="#23211E" transform="matrix(10.78553 5.26045 -4.82208 9.88673 377 25)"/>,<circle r="1" fill="#41474A" transform="matrix(-54.09185 14.49387 -1.55291 -5.79555 163 24)"/>,<circle r="1" fill="#607D87" transform="rotate(21 -603.45 432.742)scale(26 8)"/>,<ellipse cx="243" cy="188" fill="#D4CCC4" rx="32" ry="19"/>,<ellipse cx="289" cy="309" fill="#30312E" rx="40" ry="5"/>,<circle cx="287" cy="34" r="15" fill="#3E454B"/>,<circle cx="62" cy="304" r="9" fill="#221E1B"/>,<circle r="1" fill="#D2CBC1" transform="rotate(153 103.154 107.79)scale(13 61)"/>,<circle cx="297" cy="147" r="8" fill="#688193"/>,<ellipse cx="244" cy="271" fill="#7C857F" rx="28" ry="3"/>,<circle r="1" fill="#333834" transform="matrix(-18.35572 -45.432 4.63592 -1.87303 45 233)"/>,<circle r="1" fill="#C9BC81" transform="rotate(-26 626.136 -617.356)scale(13 6)"/>,<circle cx="109" cy="202" r="5" fill="#D4D3CB"/>,<circle r="1" fill="#384142" transform="rotate(-94 95.831 67.681)scale(41 5)"/>,<circle r="1" fill="#CCCCC8" transform="rotate(-59 170.595 -161.308)scale(12 15)"/>,<circle r="1" fill="#232829" transform="matrix(30.04447 104.77752 -4.8063 1.37819 7 155)"/>,<ellipse cx="174" cy="231" fill="#D2CEC9" rx="15" ry="25"/>,<circle r="1" fill="#322825" transform="rotate(55 192 368.829)scale(54 11)"/>,<ellipse cx="237" cy="282" fill="#5C5E58" rx="46" ry="6"/>,<ellipse cx="98" cy="69" fill="#5A7889" rx="25" ry="6"/>,<circle r="1" fill="#5E7A8D" transform="matrix(-10.918 -1.34056 1.46243 -11.91055 323 110)"/>,<circle cx="267" cy="37" r="11" fill="#4D585B"/>,<circle cx="308" cy="72" r="12" fill="#58748B"/>,<circle r="1" fill="#698590" transform="rotate(-99 142.74 64.869)scale(19 7)"/>,<circle r="1" fill="#4B4E48" transform="matrix(-1.46186 4.78152 -26.77653 -8.1864 153 290)"/>,<circle cx="330" cy="202" r="4" fill="#6F8086"/>,<circle cx="207" cy="227" r="10" fill="#D9D2C7"/>,<circle cx="184" cy="187" r="17" fill="#D1CAC2"/>,<circle cx="266" cy="61" r="9" fill="#CCCDCF"/>,<ellipse cx="162" cy="41" fill="#4A595B" rx="8" ry="11"/>,<circle r="1" fill="#D1CEC9" transform="rotate(-78 208.956 20.97)scale(13 25)"/>,<circle cx="96" cy="129" r="4" fill="#768387"/>,<circle r="1" fill="#CFD3C8" transform="rotate(-158 93.871 42.464)scale(25 5)"/>,<ellipse cx="103" cy="173" fill="#D6D3CC" rx="7" ry="15"/>,<circle r="1" fill="#5E7B8A" transform="matrix(-4.99315 -.26168 1.51774 -28.96026 69 161)"/>,<ellipse cx="358" cy="225" fill="#5A6151" rx="5" ry="17"/>,<circle r="1" fill="#2A2C30" transform="rotate(-29 246.9 -643.641)scale(21 4)"/>,<circle cx="153" cy="143" r="6" fill="#6E8A9B"/>,<circle cx="180" cy="108" r="15" fill="#CBC9BE"/>,<ellipse cx="251" cy="236" fill="#C2C1B7" rx="9" ry="6"/>,<circle cx="348" cy="239" r="6" fill="#47524A"/>,<circle r="1" fill="#7A8D90" transform="rotate(41 -57.731 253.271)scale(30 2)"/>,<ellipse cx="43" cy="70" fill="#2D353A" rx="11" ry="20"/>,<ellipse cx="406" cy="163" fill="#433E3B" rx="6" ry="60"/>,<ellipse cx="190" cy="87" fill="#CFCCC4" rx="29" ry="30"/>,<ellipse cx="203" cy="103" fill="#CFCABF" rx="26" ry="20"/>,<circle r="1" fill="#577083" transform="rotate(-23 417.758 -795.407)scale(6 15)"/>,<circle cy="74" r="21" fill="#242827"/>,<circle r="1" fill="#484C48" transform="matrix(-5.72786 46.64967 -10.918 -1.34056 385 176)"/>,<ellipse cx="359" cy="50" fill="#272A2D" rx="10" ry="24"/>,<circle r="1" fill="#1B1715" transform="matrix(21.55498 14.53902 -7.8287 11.60653 44 309)"/>,<circle cx="365" cy="251" r="9" fill="#40433D"/>,<ellipse cx="247" cy="78" fill="#CECCC9" rx="32" ry="16"/>,<ellipse cx="147" cy="227" fill="#D2CFC9" rx="13" ry="26"/>,<circle cx="85" cy="68" r="12" fill="#547082"/>,<circle r="1" fill="#526D80" transform="matrix(-.47102 -8.98767 7.98904 -.41869 344 93)"/>,<ellipse cx="319" cy="137" fill="#8D9BA2" rx="7" ry="6"/>,<ellipse cx="85" cy="96" fill="#5E7A87" rx="9" ry="17"/>,<circle cx="49" cy="113" r="8" fill="#334447"/>,<circle r="1" fill="#D5DCD2" transform="rotate(-35 240.867 -128.038)scale(18 4)"/>,<circle cx="320" cy="35" r="14" fill="#30343A"/>,<circle cx="241" cy="258" r="2" fill="#B2B6A7"/>,<ellipse cx="347" cy="228" fill="#4C574E" rx="2" ry="19"/>,<circle cx="125" cy="130" r="8" fill="#648192"/>,<circle r="1" fill="#5E6766" transform="rotate(-177 183.925 68.734)scale(3 33)"/>,<ellipse cx="115" cy="92" fill="#D9D8D2" rx="17" ry="3"/>,<circle r="1" fill="#D3CDC6" transform="rotate(-42 420.85 -255.41)scale(17 7)"/>,<circle cx="139" cy="195" r="20" fill="#D0CEC7"/>,<circle r="1" fill="#D2CFCC" transform="matrix(-3.17952 -5.08829 14.41682 -9.00863 337 143)"/>,<ellipse cx="65" cy="5" fill="#242525" rx="23" ry="14"/>,<circle cx="194" cy="217" r="5" fill="#7B8A91"/>,<circle cx="64" cy="222" r="7" fill="#394847"/>,<circle r="1" fill="#4D514A" transform="rotate(-18 1026.611 -801.749)scale(47 5)"/>,<circle r="1" fill="#383C40" transform="matrix(-2.63023 5.39276 -27.86262 -13.5895 294 25)"/>,<circle r="1" fill="#47493C" transform="rotate(-40 424.652 12.99)scale(5 8)"/>,<ellipse cx="6" cy="5" fill="#1A181C" rx="9" ry="19"/>,<circle r="1" fill="#577484" transform="rotate(22 -194.005 237.92)scale(5 20)"/>,<circle cx="125" cy="179" r="8" fill="#D4D2CA"/>,<circle r="1" fill="#414A46" transform="matrix(15.16005 52.8694 -3.84505 1.10255 53 205)"/>,<ellipse cx="292" fill="#423B39" rx="28" ry="10"/>,<circle cx="120" cy="42" r="12" fill="#3D484C"/>,<circle cx="114" cy="231" r="11" fill="#6A8790"/>,<ellipse cx="189" cy="275" fill="#757F78" rx="38" ry="4"/>,<circle r="1" fill="#67848F" transform="rotate(-91 125.53 43.727)scale(32 4)"/>,<ellipse cx="108" cy="18" fill="#313538" rx="15" ry="6"/>,<ellipse cx="211" cy="164" fill="#D8D0C8" rx="15" ry="17"/>,<ellipse cx="346" cy="129" fill="#D2CFCD" rx="5" ry="14"/>,<circle r="1" fill="#4F6A7E" transform="matrix(11.27631 4.10424 -3.4202 9.39693 340 84)"/>,<ellipse cx="253" cy="49" fill="#54677C" rx="65" ry="1"/>,<ellipse cx="142" cy="125" fill="#688595" rx="12" ry="11"/>,<ellipse cx="150" cy="94" fill="#BFCCBD" rx="2" ry="4"/>,<circle cx="147" cy="261" r="6" fill="#6E8589"/>,<circle r="1" fill="#313537" transform="matrix(-2.63023 -5.39276 71.00473 -34.63132 115 17)"/>,<circle r="1" fill="#3C3230" transform="matrix(23.2871 -5.80613 1.93538 7.76237 336 0)"/>,<circle cx="254" cy="36" r="8" fill="#515D5F"/>,<circle cx="185" cy="40" r="11" fill="#536265"/>,<circle cx="289" cy="175" r="7" fill="#D4D1CE"/>,<circle r="1" fill="#989F95" transform="rotate(-39 356.747 -51.64)scale(1 16)"/>,<circle cx="231" cy="236" r="10" fill="#D3CDC0"/>,<ellipse cx="356" cy="194" fill="#566360" rx="10" ry="41"/>,<circle r="1" fill="#4C544E" transform="rotate(101 102.566 252.502)scale(43 4)"/>,<ellipse cx="262" cy="219" fill="#A7ABAA" rx="3" ry="12"/>,<ellipse cx="70" cy="289" fill="#2F2C28" rx="14" ry="9"/>,<circle cx="150" cy="76" r="10" fill="#678692"/>,<circle cx="381" cy="110" r="10" fill="#3B3F42"/>,<circle cx="136" cy="82" r="8" fill="#658491"/>,<circle r="1" fill="#464A44" transform="matrix(-1.45443 -2.62386 36.73403 -20.362 332 268)"/>]</svg>